<mxfile host="app.diagrams.net" modified="2024-04-30T08:25:24.846Z" agent="Mozilla/5.0 (Windows NT 10.0; Win64; x64) AppleWebKit/537.36 (KHTML, like Gecko) Chrome/124.0.0.0 Safari/537.36" etag="Zl3SpyKvMipkeZeaWnBr" version="24.3.1" type="github">
  <diagram name="Page-1" id="t4HRLm75Le_mxX46TRCD">
    <mxGraphModel dx="1050" dy="569" grid="1" gridSize="10" guides="1" tooltips="1" connect="1" arrows="1" fold="1" page="1" pageScale="1" pageWidth="850" pageHeight="1100" math="0" shadow="0">
      <root>
        <mxCell id="0" />
        <mxCell id="1" parent="0" />
        <mxCell id="yEffb6zgSFN-hBcuX7Nb-24" value="" style="rounded=0;whiteSpace=wrap;html=1;shadow=0;fillColor=none;" vertex="1" parent="1">
          <mxGeometry x="180" y="40" width="380" height="480" as="geometry" />
        </mxCell>
        <mxCell id="yEffb6zgSFN-hBcuX7Nb-13" style="edgeStyle=orthogonalEdgeStyle;rounded=0;orthogonalLoop=1;jettySize=auto;html=1;exitX=0.75;exitY=0.1;exitDx=0;exitDy=0;exitPerimeter=0;entryX=0;entryY=0.5;entryDx=0;entryDy=0;endArrow=none;endFill=0;" edge="1" parent="1" source="yEffb6zgSFN-hBcuX7Nb-1" target="yEffb6zgSFN-hBcuX7Nb-4">
          <mxGeometry relative="1" as="geometry" />
        </mxCell>
        <mxCell id="yEffb6zgSFN-hBcuX7Nb-14" style="edgeStyle=orthogonalEdgeStyle;rounded=0;orthogonalLoop=1;jettySize=auto;html=1;exitX=1;exitY=1;exitDx=0;exitDy=0;exitPerimeter=0;entryX=0;entryY=0.5;entryDx=0;entryDy=0;endArrow=none;endFill=0;" edge="1" parent="1" source="yEffb6zgSFN-hBcuX7Nb-1" target="yEffb6zgSFN-hBcuX7Nb-6">
          <mxGeometry relative="1" as="geometry" />
        </mxCell>
        <mxCell id="yEffb6zgSFN-hBcuX7Nb-1" value="Users" style="shape=umlActor;verticalLabelPosition=bottom;verticalAlign=top;html=1;" vertex="1" parent="1">
          <mxGeometry x="120" y="230" width="30" height="60" as="geometry" />
        </mxCell>
        <mxCell id="yEffb6zgSFN-hBcuX7Nb-3" value="Perform Calculation" style="ellipse;whiteSpace=wrap;html=1;" vertex="1" parent="1">
          <mxGeometry x="240" y="240" width="100" height="50" as="geometry" />
        </mxCell>
        <mxCell id="yEffb6zgSFN-hBcuX7Nb-15" style="edgeStyle=orthogonalEdgeStyle;rounded=0;orthogonalLoop=1;jettySize=auto;html=1;exitX=1;exitY=0;exitDx=0;exitDy=0;entryX=0;entryY=0;entryDx=0;entryDy=0;dashed=1;" edge="1" parent="1" source="yEffb6zgSFN-hBcuX7Nb-4" target="yEffb6zgSFN-hBcuX7Nb-5">
          <mxGeometry relative="1" as="geometry" />
        </mxCell>
        <mxCell id="yEffb6zgSFN-hBcuX7Nb-18" value="Extend" style="edgeLabel;html=1;align=center;verticalAlign=middle;resizable=0;points=[];" vertex="1" connectable="0" parent="yEffb6zgSFN-hBcuX7Nb-15">
          <mxGeometry x="-0.3554" relative="1" as="geometry">
            <mxPoint as="offset" />
          </mxGeometry>
        </mxCell>
        <mxCell id="yEffb6zgSFN-hBcuX7Nb-4" value="View Calculation History" style="ellipse;whiteSpace=wrap;html=1;" vertex="1" parent="1">
          <mxGeometry x="240" y="150" width="100" height="50" as="geometry" />
        </mxCell>
        <mxCell id="yEffb6zgSFN-hBcuX7Nb-5" value="Delete History" style="ellipse;whiteSpace=wrap;html=1;" vertex="1" parent="1">
          <mxGeometry x="400" y="120" width="100" height="50" as="geometry" />
        </mxCell>
        <mxCell id="yEffb6zgSFN-hBcuX7Nb-16" style="edgeStyle=orthogonalEdgeStyle;rounded=0;orthogonalLoop=1;jettySize=auto;html=1;exitX=1;exitY=0.5;exitDx=0;exitDy=0;entryX=0;entryY=0.5;entryDx=0;entryDy=0;dashed=1;" edge="1" parent="1" source="yEffb6zgSFN-hBcuX7Nb-6" target="yEffb6zgSFN-hBcuX7Nb-7">
          <mxGeometry relative="1" as="geometry" />
        </mxCell>
        <mxCell id="yEffb6zgSFN-hBcuX7Nb-19" value="Extend" style="edgeLabel;html=1;align=center;verticalAlign=middle;resizable=0;points=[];" vertex="1" connectable="0" parent="yEffb6zgSFN-hBcuX7Nb-16">
          <mxGeometry x="0.1933" y="-2" relative="1" as="geometry">
            <mxPoint as="offset" />
          </mxGeometry>
        </mxCell>
        <mxCell id="yEffb6zgSFN-hBcuX7Nb-17" style="edgeStyle=orthogonalEdgeStyle;rounded=0;orthogonalLoop=1;jettySize=auto;html=1;exitX=1;exitY=1;exitDx=0;exitDy=0;entryX=0;entryY=0.5;entryDx=0;entryDy=0;dashed=1;" edge="1" parent="1" source="yEffb6zgSFN-hBcuX7Nb-6" target="yEffb6zgSFN-hBcuX7Nb-8">
          <mxGeometry relative="1" as="geometry" />
        </mxCell>
        <mxCell id="yEffb6zgSFN-hBcuX7Nb-20" value="Extend" style="edgeLabel;html=1;align=center;verticalAlign=middle;resizable=0;points=[];" vertex="1" connectable="0" parent="yEffb6zgSFN-hBcuX7Nb-17">
          <mxGeometry x="0.0936" y="-1" relative="1" as="geometry">
            <mxPoint as="offset" />
          </mxGeometry>
        </mxCell>
        <mxCell id="yEffb6zgSFN-hBcuX7Nb-22" style="edgeStyle=orthogonalEdgeStyle;rounded=0;orthogonalLoop=1;jettySize=auto;html=1;exitX=0.5;exitY=1;exitDx=0;exitDy=0;entryX=0;entryY=0.5;entryDx=0;entryDy=0;dashed=1;" edge="1" parent="1" source="yEffb6zgSFN-hBcuX7Nb-6" target="yEffb6zgSFN-hBcuX7Nb-21">
          <mxGeometry relative="1" as="geometry" />
        </mxCell>
        <mxCell id="yEffb6zgSFN-hBcuX7Nb-23" value="Extend" style="edgeLabel;html=1;align=center;verticalAlign=middle;resizable=0;points=[];" vertex="1" connectable="0" parent="yEffb6zgSFN-hBcuX7Nb-22">
          <mxGeometry x="-0.2" y="-4" relative="1" as="geometry">
            <mxPoint as="offset" />
          </mxGeometry>
        </mxCell>
        <mxCell id="yEffb6zgSFN-hBcuX7Nb-6" value="Get Help" style="ellipse;whiteSpace=wrap;html=1;" vertex="1" parent="1">
          <mxGeometry x="240" y="320" width="100" height="50" as="geometry" />
        </mxCell>
        <mxCell id="yEffb6zgSFN-hBcuX7Nb-7" value="FAQ" style="ellipse;whiteSpace=wrap;html=1;" vertex="1" parent="1">
          <mxGeometry x="410" y="320" width="100" height="50" as="geometry" />
        </mxCell>
        <mxCell id="yEffb6zgSFN-hBcuX7Nb-8" value="Tutorial" style="ellipse;whiteSpace=wrap;html=1;" vertex="1" parent="1">
          <mxGeometry x="380" y="400" width="100" height="50" as="geometry" />
        </mxCell>
        <mxCell id="yEffb6zgSFN-hBcuX7Nb-11" style="edgeStyle=orthogonalEdgeStyle;rounded=0;orthogonalLoop=1;jettySize=auto;html=1;endArrow=none;endFill=0;" edge="1" parent="1" source="yEffb6zgSFN-hBcuX7Nb-1">
          <mxGeometry relative="1" as="geometry">
            <mxPoint x="240" y="260" as="targetPoint" />
          </mxGeometry>
        </mxCell>
        <mxCell id="yEffb6zgSFN-hBcuX7Nb-21" value="Report Error" style="ellipse;whiteSpace=wrap;html=1;" vertex="1" parent="1">
          <mxGeometry x="310" y="460" width="100" height="50" as="geometry" />
        </mxCell>
      </root>
    </mxGraphModel>
  </diagram>
</mxfile>
